<svg width="197" height="197" viewBox="0 0 197 197" fill="none" xmlns="http://www.w3.org/2000/svg">
<g clip-path="url(#clip0_221_232)">
<path fill-rule="evenodd" clip-rule="evenodd" d="M98.5022 4.10449C75.1185 4.11662 52.5016 12.3987 34.6956 27.4697C16.8896 42.5407 5.05557 63.418 1.30963 86.3684C-2.43631 109.319 2.15002 132.846 14.2486 152.742C26.3473 172.639 45.1692 187.608 67.3488 194.973C72.242 195.881 74.0851 192.848 74.0851 190.269C74.0851 187.691 73.9872 180.214 73.9546 172.041C46.5527 177.96 40.7625 160.477 40.7625 160.477C36.2934 149.125 29.8343 146.141 29.8343 146.141C20.8961 140.075 30.5031 140.189 30.5031 140.189C40.4037 140.886 45.6068 150.292 45.6068 150.292C54.3819 165.261 68.6537 160.931 74.2645 158.401C75.1453 152.06 77.7061 147.746 80.5279 145.297C58.639 142.832 35.6409 134.431 35.6409 96.9032C35.5053 87.1704 39.1376 77.7583 45.7862 70.614C44.7749 68.1489 41.3986 58.1911 46.7485 44.6654C46.7485 44.6654 55.018 42.0381 73.8405 54.7043C89.9853 50.3143 107.019 50.3143 123.164 54.7043C141.97 42.0381 150.223 44.6654 150.223 44.6654C155.589 58.1587 152.213 68.1164 151.202 70.614C157.872 77.7594 161.511 87.188 161.363 96.9356C161.363 134.545 138.316 142.832 116.395 145.249C119.918 148.298 123.066 154.25 123.066 163.396C123.066 176.5 122.952 187.042 122.952 190.269C122.952 192.881 124.73 195.929 129.721 194.973C151.903 187.607 170.727 172.636 182.825 152.736C194.924 132.835 199.508 109.305 195.757 86.3524C192.007 63.3999 180.167 42.5224 162.355 27.454C144.543 12.3855 121.921 4.10893 98.5348 4.10449H98.5022Z" fill="white"/>
<path d="M37.3023 144.729C37.0903 145.216 36.3074 145.362 35.6712 145.021C35.0351 144.681 34.5622 144.048 34.7905 143.545C35.0189 143.043 35.7855 142.913 36.4216 143.253C37.0577 143.594 37.547 144.243 37.3023 144.729Z" fill="white"/>
<path d="M41.2984 149.157C40.9606 149.326 40.5742 149.373 40.2052 149.291C39.8363 149.208 39.5078 149 39.2759 148.703C38.6398 148.022 38.5092 147.081 38.9986 146.659C39.4879 146.238 40.3687 146.432 41.0048 147.113C41.6409 147.795 41.7877 148.735 41.2984 149.157Z" fill="white"/>
<path d="M45.1806 154.785C44.5772 155.206 43.5495 154.785 42.9786 153.941C42.8208 153.79 42.6953 153.609 42.6095 153.408C42.5237 153.207 42.4795 152.992 42.4795 152.774C42.4795 152.556 42.5237 152.34 42.6095 152.139C42.6953 151.939 42.8208 151.757 42.9786 151.606C43.5821 151.201 44.6098 151.606 45.1806 152.433C45.7515 153.26 45.7678 154.363 45.1806 154.785V154.785Z" fill="white"/>
<path d="M50.4489 160.234C49.9106 160.834 48.8178 160.672 47.9207 159.861C47.0236 159.05 46.8115 157.947 47.3498 157.363C47.888 156.78 48.9809 156.942 49.9106 157.737C50.8403 158.531 51.0197 159.65 50.4489 160.234V160.234Z" fill="white"/>
<path d="M57.8373 163.412C57.5926 164.175 56.4835 164.515 55.3743 164.191C54.2652 163.867 53.5312 162.958 53.7433 162.18C53.9553 161.401 55.0808 161.045 56.2062 161.401C57.3316 161.758 58.0493 162.618 57.8373 163.412Z" fill="white"/>
<path d="M65.8951 163.964C65.8951 164.758 64.9817 165.439 63.8073 165.456C62.633 165.472 61.6707 164.823 61.6707 164.028C61.6707 163.234 62.584 162.553 63.7584 162.536C64.9327 162.52 65.8951 163.153 65.8951 163.964Z" fill="white"/>
<path d="M73.3981 162.715C73.5449 163.51 72.7293 164.337 71.555 164.532C70.3806 164.726 69.353 164.256 69.2062 163.478C69.0594 162.699 69.9076 161.856 71.0493 161.645C72.1911 161.434 73.2513 161.921 73.3981 162.715Z" fill="white"/>
</g>
<defs>
<clipPath id="clip0_221_232">
<rect width="197" height="197" fill="white"/>
</clipPath>
</defs>
</svg>
