<svg width="223" height="223" viewBox="0 0 223 223" fill="none" xmlns="http://www.w3.org/2000/svg">
<g clip-path="url(#clip0_221_220)">
<path d="M111.5 20.0787C141.291 20.0787 144.819 20.2094 156.536 20.732C167.424 21.2111 173.304 23.0404 177.224 24.5648C182.407 26.5684 186.153 29.0074 190.029 32.8838C193.949 36.8037 196.345 40.5059 198.348 45.6889C199.872 49.6088 201.702 55.5322 202.181 66.3773C202.704 78.1371 202.834 81.665 202.834 111.413C202.834 141.204 202.704 144.732 202.181 156.448C201.702 167.337 199.872 173.217 198.348 177.137C196.345 182.32 193.905 186.066 190.029 189.942C186.109 193.862 182.407 196.257 177.224 198.261C173.304 199.785 167.381 201.615 156.536 202.094C144.776 202.616 141.248 202.747 111.5 202.747C81.7086 202.747 78.1807 202.616 66.4645 202.094C55.5758 201.615 49.6959 199.785 45.776 198.261C40.593 196.257 36.8473 193.818 32.9709 189.942C29.051 186.022 26.6555 182.32 24.652 177.137C23.1275 173.217 21.2982 167.294 20.8191 156.448C20.2965 144.689 20.1658 141.161 20.1658 111.413C20.1658 81.6215 20.2965 78.0936 20.8191 66.3773C21.2982 55.4887 23.1275 49.6088 24.652 45.6889C26.6555 40.5059 29.0945 36.7602 32.9709 32.8838C36.8908 28.9639 40.593 26.5684 45.776 24.5648C49.6959 23.0404 55.6193 21.2111 66.4645 20.732C78.1807 20.2094 81.7086 20.0787 111.5 20.0787ZM111.5 0C81.2295 0 77.4402 0.130664 65.5498 0.65332C53.7029 1.17598 45.5582 3.09238 38.5023 5.83633C31.1416 8.71094 24.9133 12.5002 18.7285 18.7285C12.5002 24.9133 8.71094 31.1416 5.83633 38.4588C3.09238 45.5582 1.17598 53.6594 0.65332 65.5062C0.130664 77.4402 0 81.2295 0 111.5C0 141.771 0.130664 145.56 0.65332 157.45C1.17598 169.297 3.09238 177.442 5.83633 184.498C8.71094 191.858 12.5002 198.087 18.7285 204.271C24.9133 210.456 31.1416 214.289 38.4588 217.12C45.5582 219.864 53.6594 221.78 65.5063 222.303C77.3967 222.826 81.1859 222.956 111.456 222.956C141.727 222.956 145.516 222.826 157.407 222.303C169.254 221.78 177.398 219.864 184.454 217.12C191.771 214.289 198 210.456 204.184 204.271C210.369 198.087 214.202 191.858 217.033 184.541C219.777 177.442 221.693 169.341 222.216 157.494C222.739 145.603 222.869 141.814 222.869 111.544C222.869 81.2731 222.739 77.4838 222.216 65.5934C221.693 53.7465 219.777 45.6018 217.033 38.5459C214.289 31.1416 210.5 24.9133 204.272 18.7285C198.087 12.5438 191.858 8.71094 184.541 5.87988C177.442 3.13594 169.341 1.21953 157.494 0.696875C145.56 0.130664 141.771 0 111.5 0Z" fill="white"/>
<path d="M111.5 54.2256C79.8793 54.2256 54.2256 79.8793 54.2256 111.5C54.2256 143.121 79.8793 168.774 111.5 168.774C143.121 168.774 168.774 143.121 168.774 111.5C168.774 79.8793 143.121 54.2256 111.5 54.2256ZM111.5 148.652C90.9857 148.652 74.3479 132.014 74.3479 111.5C74.3479 90.9857 90.9857 74.3479 111.5 74.3479C132.014 74.3479 148.652 90.9857 148.652 111.5C148.652 132.014 132.014 148.652 111.5 148.652Z" fill="white"/>
<path d="M184.411 51.9602C184.411 59.3645 178.4 65.3315 171.039 65.3315C163.635 65.3315 157.668 59.3209 157.668 51.9602C157.668 44.5559 163.679 38.5889 171.039 38.5889C178.4 38.5889 184.411 44.5994 184.411 51.9602Z" fill="white"/>
</g>
<defs>
<clipPath id="clip0_221_220">
<rect width="223" height="223" fill="white"/>
</clipPath>
</defs>
</svg>
