<svg width="190" height="190" viewBox="0 0 190 190" fill="none" xmlns="http://www.w3.org/2000/svg">
<path d="M175.974 0H14.0257C10.3059 0 6.73836 1.47771 4.10803 4.10803C1.47771 6.73836 0 10.3059 0 14.0257V175.974C0 179.694 1.47771 183.262 4.10803 185.892C6.73836 188.522 10.3059 190 14.0257 190H175.974C179.694 190 183.262 188.522 185.892 185.892C188.522 183.262 190 179.694 190 175.974V14.0257C190 10.3059 188.522 6.73836 185.892 4.10803C183.262 1.47771 179.694 0 175.974 0ZM56.6306 161.856H28.0646V71.1181H56.6306V161.856ZM42.3278 58.5438C39.0875 58.5255 35.9252 57.5478 33.24 55.734C30.5548 53.9203 28.4671 51.3517 27.2403 48.3525C26.0135 45.3534 25.7026 42.058 26.3469 38.8823C26.9912 35.7067 28.5618 32.793 30.8604 30.5091C33.159 28.2252 36.0827 26.6734 39.2624 26.0495C42.4422 25.4256 45.7355 25.7576 48.7267 27.0036C51.7179 28.2497 54.273 30.3538 56.0695 33.0506C57.866 35.7474 58.8234 38.9159 58.8208 42.1563C58.8514 44.3257 58.4449 46.4791 57.6255 48.488C56.8061 50.497 55.5907 52.3205 54.0516 53.8497C52.5125 55.3789 50.6813 56.5827 48.6671 57.3891C46.6529 58.1956 44.497 58.5882 42.3278 58.5438ZM161.922 161.935H133.369V112.364C133.369 97.7445 127.155 93.2319 119.133 93.2319C110.662 93.2319 102.349 99.6181 102.349 112.733V161.935H73.7833V71.184H101.254V83.7583H101.624C104.381 78.1771 114.04 68.6375 128.778 68.6375C144.717 68.6375 161.935 78.0979 161.935 105.806L161.922 161.935Z" fill="white"/>
</svg>
