<svg width="267" height="267" viewBox="0 0 267 267" fill="none" xmlns="http://www.w3.org/2000/svg">
<path d="M133.389 22.25C71.9787 22.25 22.25 72.09 22.25 133.5C22.25 194.91 71.9787 244.75 133.389 244.75C194.91 244.75 244.75 194.91 244.75 133.5C244.75 72.09 194.91 22.25 133.389 22.25ZM210.485 89H177.666C174.106 75.0938 168.989 61.7438 162.314 49.395C182.784 56.4038 199.805 70.6438 210.485 89ZM133.5 44.945C142.734 58.295 149.965 73.0913 154.749 89H112.251C117.035 73.0913 124.266 58.295 133.5 44.945ZM47.3925 155.75C45.6125 148.63 44.5 141.176 44.5 133.5C44.5 125.824 45.6125 118.37 47.3925 111.25H84.995C84.105 118.593 83.4375 125.935 83.4375 133.5C83.4375 141.065 84.105 148.407 84.995 155.75H47.3925ZM56.515 178H89.3337C92.8937 191.906 98.0112 205.256 104.686 217.605C84.2162 210.596 67.195 196.467 56.515 178V178ZM89.3337 89H56.515C67.195 70.5325 84.2162 56.4038 104.686 49.395C98.0112 61.7438 92.8937 75.0938 89.3337 89V89ZM133.5 222.055C124.266 208.705 117.035 193.909 112.251 178H154.749C149.965 193.909 142.734 208.705 133.5 222.055ZM159.533 155.75H107.467C106.466 148.407 105.688 141.065 105.688 133.5C105.688 125.935 106.466 118.481 107.467 111.25H159.533C160.534 118.481 161.312 125.935 161.312 133.5C161.312 141.065 160.534 148.407 159.533 155.75ZM162.314 217.605C168.989 205.256 174.106 191.906 177.666 178H210.485C199.805 196.356 182.784 210.596 162.314 217.605V217.605ZM182.005 155.75C182.895 148.407 183.562 141.065 183.562 133.5C183.562 125.935 182.895 118.593 182.005 111.25H219.607C221.387 118.37 222.5 125.824 222.5 133.5C222.5 141.176 221.387 148.63 219.607 155.75H182.005Z" fill="white"/>
</svg>
