<svg width="219" height="219" viewBox="0 0 219 219" fill="none" xmlns="http://www.w3.org/2000/svg">
<path d="M36.5 63.875C36.5 58.8562 40.6062 54.75 45.625 54.75H191.625C196.644 54.75 200.75 50.6438 200.75 45.625C200.75 40.6062 196.644 36.5 191.625 36.5H36.5C26.4625 36.5 18.25 44.7125 18.25 54.75V155.125H13.6875C6.11375 155.125 0 161.239 0 168.812C0 176.386 6.11375 182.5 13.6875 182.5H114.062C121.636 182.5 127.75 176.386 127.75 168.812C127.75 161.239 121.636 155.125 114.062 155.125H36.5V63.875ZM209.875 73H155.125C150.106 73 146 77.1062 146 82.125V173.375C146 178.394 150.106 182.5 155.125 182.5H209.875C214.894 182.5 219 178.394 219 173.375V82.125C219 77.1062 214.894 73 209.875 73ZM200.75 155.125H164.25V91.25H200.75V155.125Z" fill="white"/>
</svg>
