<svg width="230" height="230" viewBox="0 0 230 230" fill="none" xmlns="http://www.w3.org/2000/svg">
<path d="M115.862 27.8875C96.6 8.62505 67.7541 4.69588 44.5625 16.0042L79.35 50.7917C83.0875 54.5292 83.0875 60.5667 79.35 64.3042L64.1125 79.5417C60.375 83.375 54.3375 83.375 50.6 79.5417L15.8125 44.7542C4.59997 68.0417 8.52914 96.6959 27.7916 115.958C45.6166 133.783 71.6833 138.479 93.8208 130.142L170.104 206.425C179.975 216.296 195.883 216.296 205.658 206.425C215.529 196.554 215.529 180.646 205.658 170.871L129.758 94.875C138.575 72.45 133.975 46 115.862 27.8875Z" fill="white"/>
</svg>
