<svg width="288" height="288" viewBox="0 0 288 288" fill="none" xmlns="http://www.w3.org/2000/svg">
<path d="M276 96C276 109.2 265.2 120 252 120C249.84 120 247.8 119.76 245.88 119.16L203.16 161.76C203.76 163.68 204 165.84 204 168C204 181.2 193.2 192 180 192C166.8 192 156 181.2 156 168C156 165.84 156.24 163.68 156.84 161.76L126.24 131.16C124.32 131.76 122.16 132 120 132C117.84 132 115.68 131.76 113.76 131.16L59.16 185.88C59.76 187.8 60 189.84 60 192C60 205.2 49.2 216 36 216C22.8 216 12 205.2 12 192C12 178.8 22.8 168 36 168C38.16 168 40.2 168.24 42.12 168.84L96.84 114.24C96.24 112.32 96 110.16 96 108C96 94.8 106.8 84 120 84C133.2 84 144 94.8 144 108C144 110.16 143.76 112.32 143.16 114.24L173.76 144.84C175.68 144.24 177.84 144 180 144C182.16 144 184.32 144.24 186.24 144.84L228.84 102.12C228.24 100.2 228 98.16 228 96C228 82.8 238.8 72 252 72C265.2 72 276 82.8 276 96ZM276 96C276 109.2 265.2 120 252 120C249.84 120 247.8 119.76 245.88 119.16L203.16 161.76C203.76 163.68 204 165.84 204 168C204 181.2 193.2 192 180 192C166.8 192 156 181.2 156 168C156 165.84 156.24 163.68 156.84 161.76L126.24 131.16C124.32 131.76 122.16 132 120 132C117.84 132 115.68 131.76 113.76 131.16L59.16 185.88C59.76 187.8 60 189.84 60 192C60 205.2 49.2 216 36 216C22.8 216 12 205.2 12 192C12 178.8 22.8 168 36 168C38.16 168 40.2 168.24 42.12 168.84L96.84 114.24C96.24 112.32 96 110.16 96 108C96 94.8 106.8 84 120 84C133.2 84 144 94.8 144 108C144 110.16 143.76 112.32 143.16 114.24L173.76 144.84C175.68 144.24 177.84 144 180 144C182.16 144 184.32 144.24 186.24 144.84L228.84 102.12C228.24 100.2 228 98.16 228 96C228 82.8 238.8 72 252 72C265.2 72 276 82.8 276 96Z" fill="white"/>
</svg>
